<svg data-bbox="25 40 149.993 120" viewBox="0 0 200 200" height="200" width="200" xmlns="http://www.w3.org/2000/svg" data-type="shape">
    <g>
        <path d="M99.996 40c41.73 0 65.23 37.28 73.39 53.31 2.14 4.19 2.14 9.19.01 13.38-8.17 16.03-31.67 53.31-73.4 53.31-41.73 0-65.23-37.28-73.39-53.31a14.776 14.776 0 0 1-.01-13.38h.01l.641-1.241C35.953 75.439 59.31 40 99.997 40Zm0 30c-16.54 0-30 13.46-30 30s13.46 30 30 30 30-13.46 30-30-13.46-30-30-30Zm0 10c11.03 0 20 8.97 20 20s-8.97 20-20 20-20-8.97-20-20 8.97-20 20-20Z" fill-rule="evenodd"></path>
    </g>
</svg>